#!OML:ASF E:/inclinewalkrobotboard/Project1/Captureday1/Session1/subject1.ASF
:FULLY-SPECIFIED
:DEGREES
163
root 0 0 0 -1.468766748397532 0.3885285397760221 3.0998727771308663
lowerback 10.203366142989367 -1.4874882701127827 -4.735579394193842
upperback 0.47136852064999823 -2.4364691484123018 1.3670625122386615
thorax -5.056767939562 -1.0811688932791856 4.433178173657162
lowerneck -17.351778192678204 -2.475564911574536 -2.0871951493838026
upperneck 20.004357794650577 -2.821699397006268 -0.22210472043987783
head 9.225690600563174 -1.4808298796993489 -0.09515963330999894
rclavicle 4.005011851680657E-15 -1.0455924748382828E-15
rhumerus -32.198638336486766 -24.098113686604332 -75.90857037127486
rradius 25.545689061813206
rwrist 3.223079171534752
rhand -18.843740100141574 22.668824706058047
rfingers 7.125020000000021
rthumb 7.459015482484503 -7.259646104399348
lclavicle 3.2309099805578693E-15 -6.586877620348194E-16
lhumerus -24.139562780288184 -5.594006671261948 81.86954844202903
lradius 32.032737056894504
lwrist 7.464710776262164
lhand -28.126136693228467 25.148625625398623
lfingers 7.125020000000002
lthumb -1.5027779572363897 55.14146400658116
rfemur -33.232191519865026 7.188231873915889 19.4712846082989
rtibia 19.51447958381319
rfoot -8.685140377868578 -15.320893008758775
rtoes -4.489681117967353
lfemur 11.151405083030355 -3.227836585948934 -29.713458563749988
ltibia 19.679446313077772
lfoot -17.540363517296854 -0.7944438491751105
ltoes 1.9214037918055986
164
root 0 0 0 -1.4347389569281812 0.45952513918868876 2.8094431562696873
lowerback 10.19070457089825 -1.5160144644268834 -4.534487901277944
upperback 0.42158340863859256 -2.446348582580444 1.4572982681292679
thorax -5.100659508689284 -1.0893569875852118 4.415354084841896
lowerneck -17.335798429946564 -2.4585292208891842 -1.9951125647600065
upperneck 20.26407021800677 -2.788879164685839 -0.3965591181236259
head 9.311881525848424 -1.478232294299339 -0.16679086701612417
rclavicle 3.0097536289104634E-15 -9.472844093364511E-16
rhumerus -32.56709263657901 -24.703161270803264 -75.690887036813
rradius 25.17824162278231
rwrist 3.4785523792885877
rhand -18.860222326933204 22.436571362430882
rfingers 7.125020000000019
rthumb 7.442696825733713 -7.50022347078194
lclavicle 2.1625198664919414E-15 -5.297081156090018E-16
lhumerus -24.342662494204593 -5.18947499911793 81.68046852559344
lradius 31.746373193735476
lwrist 7.365290207032668
lhand -28.073904589396783 25.53097284600666
lfingers 7.125020000000003
lthumb -1.4517493152038536 55.52109185907052
rfemur -29.07889439819787 8.0038623758211 19.408216895990027
rtibia 14.104636632360938
rfoot -7.6444516921940675 -13.489329119214643
rtoes -4.727670102445886
lfemur 13.718121124813425 -3.443445663646375 -29.499649626662464
ltibia 20.37485950578751
lfoot -15.164884738894578 -3.1677034968384077
ltoes -0.30144073977487196
165
root 0 0 0 -1.4715884178449532 0.5522758990282655 1.176760720343966
lowerback 10.388587205221754 -1.639681487824864 -3.336662989026679
upperback 0.3925801764759895 -2.438857724455029 1.932782096240847
thorax -5.236635600571413 -1.1099735472612882 4.239924645589092
lowerneck -17.426495944484568 -2.3859479509696797 -1.8099421311163186
upperneck 19.784754605132253 -2.689676308264886 -0.581411473755278
head 9.171870497671572 -1.4391892243309705 -0.24509150167121768
rclavicle 2.178005228114759E-15 -1.6239877866289591E-15
rhumerus -32.95203555681596 -25.485164822643135 -75.4222449946747
rradius 24.48970979427802
rwrist 4.099994531124612
rhand -18.795434135672146 22.272108673744768
rfingers 7.125020000000017
rthumb 7.5053663494579625 -7.670170251413527
lclavicle 1.1855333383773419E-15 -1.0495690531650395E-15
lhumerus -25.431724745816112 -4.354270434587689 81.68812112463948
lradius 31.15290160253762
lwrist 7.141586741792686
lhand -27.92561054499743 25.843420469567587
lfingers 7.125020000000006
lthumb -1.3072510071312315 55.82824413287284
rfemur -24.33876242284177 5.709583529037719 20.477644149320238
rtibia 25.479398754834094
rfoot -5.861114556357859 -8.369516673660383
rtoes 0.8357802956642482
lfemur 16.708335263737858 -3.699185614002491 -27.654177360615346
ltibia 25.99670728409565
lfoot -6.162995326216686 -9.032700970481445
ltoes -7.91296995653904
166
root 0 0 0 -1.6573747872985498 0.6850330787987629 -1.7439386143311342
lowerback 10.702399306052579 -1.8572629507273808 -1.1226360486961837
upperback 0.4519643364045186 -2.410071562957036 2.785677011568909
thorax -5.351091092424639 -1.1411594461797772 3.8866419407545845
lowerneck -17.42533764841022 -2.321370836607403 -1.5711014443854219
upperneck 19.29227542101493 -2.6087283613136596 -0.7669948962568054
head 9.001856615429837 -1.4046479685439266 -0.33513300800574314
rclavicle 2.10325782924208E-15 -2.2411342079770055E-15
rhumerus -32.992596291446965 -25.69209416798155 -75.33837308291217
rradius 24.179353272037815
rwrist 4.405671099544215
rhand -18.71833884051216 22.285639138381573
rfingers 7.125020000000017
rthumb 7.580009709684705 -7.651630782407704
lclavicle 9.264703468095808E-16 -1.6098813838588241E-15
lhumerus -27.4592978419398 -3.465292845452825 82.20128897790585
lradius 30.525542737347386
lwrist 6.9955592650668965
lhand -27.7349019367901 25.38927917426838
lfingers 7.125020000000013
lthumb -1.1239917840547546 55.36727407504343
rfemur -21.041766483902986 4.5633030963178545 22.50314721977808
rtibia 33.306912311139946
rfoot -5.951893064389067 -5.26022322024808
rtoes 6.708519073620913
lfemur 13.010927555429468 -3.0379763528983927 -21.922906844533873
ltibia 46.609996719546885
lfoot 8.586967489558848 -16.65345705260201
ltoes -14.475825028221019
167
root 0 0 0 -2.5863837951300734 0.36502677993403054 -3.0613183154599026
lowerback 10.700402947372892 -1.6539075069202758 0.07320308814458953
upperback 0.8799602313611088 -1.9781085050183511 3.0891251329705596
thorax -4.970552308554309 -0.9474211000587749 3.484548119822037
lowerneck -16.45466792260772 -2.420212787603675 -1.5335618289772488
upperneck 21.64939790761991 -2.7949520393377476 -0.6298494538248447
head 9.609143303003504 -1.470818574515235 -0.33163022044435536
rclavicle 2.9415802713341735E-15 -3.848074169526502E-15
rhumerus -32.83054822891797 -25.52415025063201 -75.56360023988132
rradius 23.89808246463862
rwrist 4.678828412377645
rhand -18.56944798149864 22.358150352214842
rfingers 7.125020000000017
rthumb 7.72496039785159 -7.5573489212211875
lclavicle 1.421018070517725E-15 -3.6167060002728E-15
lhumerus -30.353513408874903 -2.5614123083442903 83.2291136124934
lradius 29.806138082441947
lwrist 6.84413850082904
lhand -27.455994876491797 24.522843787476756
lfingers 7.125020000000021
lthumb -0.856474065123833 54.49095753103653
rfemur -19.178914620287692 5.683224790022604 25.075023967197467
rtibia 31.554528070187523
rfoot -8.114713959419309 -5.469148039885532
rtoes 10.15658790519673
lfemur 1.1000287920546947 -1.4135995650483573 -17.452460488938563
ltibia 55.72480470658678
lfoot 19.617650190474578 -21.19986783291284
ltoes -5.668230157308987
168
root 0 0 0 -3.554574641288268 -0.31926531758873633 -3.758338069836483
lowerback 12.100366333755325 -1.2576318976064744 0.8543698881568869
upperback 1.1570242364858283 -1.339042218036165 3.080687099718117
thorax -5.556603123487079 -0.645494669801326 2.95079360139802
lowerneck -16.127341403169467 -2.699472172770458 -1.4563490781246233
upperneck 22.26041830120739 -3.214524775978171 -0.538076560546427
head 9.834899040545496 -1.659675241378498 -0.36296965590120106
rclavicle 3.539982531453356E-15 -5.406268725449879E-15
rhumerus -32.64933797479046 -24.96327969872691 -76.02127893333903
rradius 23.644847067998697
rwrist 4.875208064979165
rhand -18.400120860884563 22.502067289985288
rfingers 7.125020000000018
rthumb 7.88997394265814 -7.391406073949259
lclavicle 1.2441447202185682E-15 -5.269440666197402E-15
lhumerus -32.22067055137864 -2.144904849687625 84.02778797969948
lradius 29.32581958825395
lwrist 6.662514693638066
lhand -27.362626453047383 23.9875348976204
lfingers 7.125020000000025
lthumb -0.7630402859207388 53.96107295244894
rfemur -17.739625863164743 6.280186843581731 26.40157216686663
rtibia 30.452627298406902
rfoot -9.498527232322058 -5.922890315321171
rtoes 11.48633644331815
lfemur -6.513449392306023 1.647517450590092 -15.44172851409701
ltibia 68.83144385417006
lfoot 16.239600956744855 -20.31504988075683
ltoes -4.330414571939908
169
root 0 0 0 -3.907690020854625 -1.0719795900272029 -4.036252832458624
lowerback 12.314649398174273 -0.9214770316233186 1.548065974103217
upperback 0.936149665910424 -0.8281674116710616 2.869724158390069
thorax -5.950847674840962 -0.4092792056420911 2.2671727232358685
lowerneck -16.032413931430874 -2.8036785060552676 -1.4976157770474505
upperneck 21.71872457109811 -3.382260323473966 -0.368034680506929
head 9.632763640233156 -1.73989601468579 -0.3100375814683756
rclavicle 2.8137655969441473E-15 -5.580812595045037E-15
rhumerus -32.26619205500408 -24.02892843964683 -76.4167566823515
rradius 24.01982580916676
rwrist 4.636993020290139
rhand -18.350032868477925 22.70571912411654
rfingers 7.125020000000019
rthumb 7.936958457514555 -7.18370943724058
lclavicle -2.9449632686022264E-16 -5.502672689203942E-15
lhumerus -33.1063649506333 -1.9259820188844723 84.37234325243014
lradius 29.115175645394544
lwrist 6.630582511347528
lhand -27.38334366076539 23.638093485607946
lfingers 7.125020000000026
lthumb -0.7804007672379933 53.61878046221737
rfemur -16.566622145251774 6.449956202467313 26.964415698646427
rtibia 30.3272396303656
rfoot -10.764282068785686 -6.181437166287408
rtoes 11.538437695368616
lfemur -16.13515653296883 4.071446776060762 -15.052603028904693
ltibia 69.47446864603182
lfoot 7.750393880766335 -14.211350579974617
ltoes -2.8313014044050284
